<?xml version="1.0" standalone="no"?>
<!DOCTYPE svg PUBLIC "-//W3C//DTD SVG 1.1//EN" "http://www.w3.org/Graphics/SVG/1.1/DTD/svg11.dtd" >
<!--
2013-9-30: Created.
-->
<svg>
<metadata>
Created by iconfont
</metadata>
<defs>

<font id="iconfont" horiz-adv-x="1024" >
  <font-face
    font-family="iconfont"
    font-weight="500"
    font-stretch="normal"
    units-per-em="1024"
    ascent="896"
    descent="-128"
  />
    <missing-glyph />
    
    <glyph glyph-name="EMOJI-" unicode="&#58945;" d="M512 448m-426.666667 0a426.666667 426.666667 0 1 1 853.333334 0 426.666667 426.666667 0 1 1-853.333334 0ZM512 874.666667C277.333333 874.666667 85.333333 682.666667 85.333333 448s192-426.666667 426.666667-426.666667 426.666667 192 426.666667 426.666667S746.666667 874.666667 512 874.666667z m0-789.333334C296.533333 85.333333 123.733333 260.266667 123.733333 473.6 123.733333 689.066667 296.533333 864 512 864s388.266667-174.933333 388.266667-388.266667C902.4 260.266667 727.466667 85.333333 512 85.333333zM384 789.333333a128 32 0 1 1 256 0 128 32 0 1 1-256 0ZM170.666667-74.666667a341.333333 32 0 1 1 682.666666 0 341.333333 32 0 1 1-682.666666 0ZM714.666667 341.333333a53.333333 32 0 1 1 106.666666 0 53.333333 32 0 1 1-106.666666 0ZM202.666667 341.333333a53.333333 32 0 1 1 106.666666 0 53.333333 32 0 1 1-106.666666 0ZM288 469.333333m-21.333333 0a21.333333 21.333333 0 1 1 42.666666 0 21.333333 21.333333 0 1 1-42.666666 0ZM736 469.333333m-21.333333 0a21.333333 21.333333 0 1 1 42.666666 0 21.333333 21.333333 0 1 1-42.666666 0ZM512 85.333333c119.466667 0 219.733333 85.333333 234.666667 196.266667 0 6.4-2.133333 12.8-6.4 17.066667-4.266667 4.266667-12.8 6.4-19.2 6.4-138.666667-21.333333-277.333333-21.333333-416 0-6.4 2.133333-14.933333 0-19.2-6.4-4.266667-4.266667-8.533333-10.666667-6.4-17.066667C292.266667 170.666667 392.533333 85.333333 512 85.333333zM512 192c-68.266667 0-130.133333-14.933333-172.8-36.266667 42.666667-42.666667 104.533333-70.4 172.8-70.4s130.133333 27.733333 172.8 70.4c-42.666667 21.333333-104.533333 36.266667-172.8 36.266667z"  horiz-adv-x="1024" />

    
    <glyph glyph-name="EMOJI-1" unicode="&#58946;" d="M443.733333 437.333333m-426.666666 0a426.666667 426.666667 0 1 1 853.333333 0 426.666667 426.666667 0 1 1-853.333333 0ZM443.733333 864c-234.666667 0-426.666667-192-426.666666-426.666667s192-426.666667 426.666666-426.666666 426.666667 192 426.666667 426.666666-192 426.666667-426.666667 426.666667z m0-789.333333c-215.466667 0-388.266667 174.933333-388.266666 388.266666C53.333333 680.533333 228.266667 853.333333 443.733333 853.333333S832 680.533333 832 465.066667s-174.933333-390.4-388.266667-390.4zM315.733333 778.666667a128 32 0 1 1 256 0 128 32 0 1 1-256 0ZM102.4-64a341.333333 32 0 1 1 682.666667 0 341.333333 32 0 1 1-682.666667 0ZM646.4 330.666667a53.333333 32 0 1 1 106.666667 0 53.333333 32 0 1 1-106.666667 0ZM132.266667 330.666667a53.333333 32 0 1 1 106.666666 0 53.333333 32 0 1 1-106.666666 0ZM904.533333 243.2l96 32c4.266667 2.133333 6.4 4.266667 6.4 8.533333s-2.133333 6.4-6.4 8.533334l-78.933333 25.6c-10.666667 4.266667-19.2 12.8-23.466667 23.466666l-25.6 78.933334c-2.133333 4.266667-4.266667 6.4-8.533333 6.4s-6.4-2.133333-8.533333-6.4L829.866667 341.333333c-4.266667-10.666667-12.8-19.2-23.466667-23.466666L725.333333 292.266667c-4.266667-2.133333-6.4-4.266667-6.4-8.533334s2.133333-6.4 6.4-8.533333l78.933334-25.6c10.666667-4.266667 19.2-12.8 23.466666-23.466667l25.6-78.933333c2.133333-4.266667 4.266667-6.4 8.533334-6.4s6.4 2.133333 8.533333 6.4l34.133333 96zM443.733333 117.333333c196.266667 0 221.866667 81.066667 211.2 149.333334-6.4 40.533333-53.333333 66.133333-98.133333 51.2-32-10.666667-72.533333-17.066667-113.066667-17.066667s-81.066667 6.4-113.066666 17.066667c-42.666667 14.933333-89.6-10.666667-98.133334-51.2-12.8-68.266667 12.8-149.333333 211.2-149.333334z"  horiz-adv-x="1024" />

    
    <glyph glyph-name="EMOJI-2" unicode="&#58947;" d="M512 465.066667m-328.533333 0a328.533333 328.533333 0 1 1 657.066666 0 328.533333 328.533333 0 1 1-657.066666 0ZM512 793.6c-181.333333 0-328.533333-147.2-328.533333-328.533333S330.666667 136.533333 512 136.533333s328.533333 147.2 328.533333 328.533334S693.333333 793.6 512 793.6z m0-605.866667c-166.4 0-298.666667 134.4-298.666667 298.666667 0 166.4 134.4 298.666667 298.666667 298.666667s298.666667-134.4 298.666667-298.666667c0-166.4-132.266667-298.666667-298.666667-298.666667zM413.866667 727.466667a98.133333 25.6 0 1 1 196.266666 0 98.133333 25.6 0 1 1-196.266666 0ZM249.6 6.4a262.4 32 0 1 1 524.8 0 262.4 32 0 1 1-524.8 0ZM667.733333 384a40.533333 25.6 0 1 1 81.066667 0 40.533333 25.6 0 1 1-81.066667 0ZM275.2 384a40.533333 25.6 0 1 1 81.066667 0 40.533333 25.6 0 1 1-81.066667 0ZM411.733333 334.933333c-4.266667 0-8.533333-2.133333-12.8-6.4-2.133333-4.266667-4.266667-8.533333-4.266666-12.8 8.533333-55.466667 57.6-96 115.2-96s106.666667 40.533333 115.2 96c0 4.266667 0 8.533333-4.266667 12.8-2.133333 4.266667-6.4 6.4-12.8 6.4h-196.266667zM603.733333 262.4c-23.466667 12.8-55.466667 21.333333-91.733333 21.333333-36.266667 0-68.266667-8.533333-91.733333-21.333333 21.333333-27.733333 53.333333-42.666667 91.733333-42.666667s70.4 17.066667 91.733333 42.666667zM953.6 305.066667c-70.4-70.4-121.6 70.4-192 85.333333 98.133333 70.4 262.4-14.933333 192-85.333333zM763.733333 388.266667c2.133333 0 4.266667 0 4.266667-2.133334 96 34.133333 215.466667-38.4 157.866667-100.266666 8.533333 2.133333 19.2 8.533333 27.733333 17.066666 70.4 72.533333-93.866667 157.866667-189.866667 85.333334zM885.333333 556.8c23.466667-61.866667-76.8-53.333333-102.4-89.6-17.066667 76.8 81.066667 149.333333 102.4 89.6zM782.933333 465.066667l2.133334 2.133333c6.4 66.133333 83.2 117.333333 104.533333 66.133333 0 6.4 0 12.8-2.133333 21.333334-23.466667 61.866667-121.6-10.666667-104.533334-89.6zM1002.666667 462.933333c-17.066667-42.666667-64 8.533333-96 2.133334 27.733333 49.066667 113.066667 40.533333 96-2.133334zM904.533333 465.066667h2.133334c34.133333 32 100.266667 21.333333 85.333333-14.933334 4.266667 2.133333 6.4 6.4 8.533333 12.8 19.2 42.666667-66.133333 51.2-96 2.133334zM70.4 305.066667c70.4-70.4 121.6 70.4 192 85.333333-98.133333 70.4-262.4-14.933333-192-85.333333zM260.266667 388.266667c-2.133333 0-4.266667 0-4.266667-2.133334-96 34.133333-215.466667-38.4-157.866667-100.266666-8.533333 2.133333-19.2 8.533333-27.733333 17.066666-70.4 72.533333 93.866667 157.866667 189.866667 85.333334zM138.666667 556.8c-23.466667-61.866667 76.8-53.333333 102.4-89.6 17.066667 76.8-81.066667 149.333333-102.4 89.6zM241.066667 465.066667l-2.133334 2.133333c-6.4 66.133333-83.2 117.333333-104.533333 66.133333 0 6.4 0 12.8 2.133333 21.333334 23.466667 61.866667 121.6-10.666667 104.533334-89.6zM21.333333 462.933333c17.066667-42.666667 64 8.533333 96 2.133334-27.733333 49.066667-113.066667 40.533333-96-2.133334zM119.466667 465.066667h-2.133334c-34.133333 32-100.266667 21.333333-85.333333-14.933334-4.266667 2.133333-6.4 6.4-8.533333 12.8-19.2 42.666667 66.133333 51.2 96 2.133334z"  horiz-adv-x="1024" />

    
    <glyph glyph-name="EMOJI-3" unicode="&#58948;" d="M512 437.333333m-426.666667 0a426.666667 426.666667 0 1 1 853.333334 0 426.666667 426.666667 0 1 1-853.333334 0ZM512 864c-234.666667 0-426.666667-192-426.666667-426.666667s192-426.666667 426.666667-426.666666 426.666667 192 426.666667 426.666666-192 426.666667-426.666667 426.666667z m0-789.333333c-215.466667 0-388.266667 174.933333-388.266667 388.266666C123.733333 680.533333 296.533333 853.333333 512 853.333333s388.266667-174.933333 388.266667-388.266666c2.133333-215.466667-172.8-390.4-388.266667-390.4zM384 778.666667a128 32 0 1 1 256 0 128 32 0 1 1-256 0ZM170.666667-64a341.333333 32 0 1 1 682.666666 0 341.333333 32 0 1 1-682.666666 0ZM714.666667 330.666667a53.333333 32 0 1 1 106.666666 0 53.333333 32 0 1 1-106.666666 0ZM202.666667 330.666667a53.333333 32 0 1 1 106.666666 0 53.333333 32 0 1 1-106.666666 0ZM381.866667 266.666667c-6.4 0-10.666667-2.133333-14.933334-6.4-4.266667-4.266667-4.266667-10.666667-4.266666-14.933334 10.666667-72.533333 74.666667-125.866667 149.333333-125.866666s138.666667 53.333333 149.333333 125.866666c0 6.4 0 10.666667-4.266666 17.066667-4.266667 4.266667-8.533333 6.4-14.933334 6.4H381.866667zM631.466667 174.933333c-29.866667 17.066667-72.533333 27.733333-119.466667 27.733334-46.933333 0-89.6-10.666667-119.466667-27.733334 27.733333-36.266667 70.4-57.6 119.466667-57.6s91.733333 21.333333 119.466667 57.6z"  horiz-adv-x="1024" />

    
    <glyph glyph-name="EMOJI-4" unicode="&#58949;" d="M480 445.866667m-426.666667 0a426.666667 426.666667 0 1 1 853.333334 0 426.666667 426.666667 0 1 1-853.333334 0ZM480 872.533333c-234.666667 0-426.666667-192-426.666667-426.666666s192-426.666667 426.666667-426.666667 426.666667 192 426.666667 426.666667-189.866667 426.666667-426.666667 426.666666z m0-789.333333C264.533333 83.2 91.733333 256 91.733333 471.466667S266.666667 859.733333 480 859.733333s388.266667-174.933333 388.266667-388.266666c2.133333-215.466667-172.8-388.266667-388.266667-388.266667zM352 787.2a128 32 0 1 1 256 0 128 32 0 1 1-256 0ZM138.666667-72.533333a341.333333 32 0 1 1 682.666666 0 341.333333 32 0 1 1-682.666666 0ZM682.666667 339.2a53.333333 32 0 1 1 106.666666 0 53.333333 32 0 1 1-106.666666 0ZM170.666667 339.2a53.333333 32 0 1 1 106.666666 0 53.333333 32 0 1 1-106.666666 0ZM352 275.2c-6.4 0-10.666667-2.133333-14.933333-6.4-4.266667-4.266667-6.4-10.666667-4.266667-17.066667 10.666667-72.533333 74.666667-125.866667 149.333333-125.866666s138.666667 53.333333 149.333334 125.866666c0 6.4 0 10.666667-4.266667 17.066667-4.266667 4.266667-8.533333 6.4-14.933333 6.4H352zM599.466667 181.333333c-29.866667 17.066667-72.533333 27.733333-119.466667 27.733334-46.933333 0-89.6-10.666667-119.466667-27.733334 27.733333-36.266667 70.4-57.6 119.466667-57.6s91.733333 23.466667 119.466667 57.6zM970.666667 189.866667c0-59.733333-46.933333-106.666667-106.666667-106.666667s-106.666667 46.933333-106.666667 106.666667 106.666667 234.666667 106.666667 234.666666 106.666667-177.066667 106.666667-234.666666zM864 136.533333c-49.066667 0-89.6 34.133333-102.4 78.933334-2.133333-10.666667-4.266667-19.2-4.266667-25.6 0-59.733333 46.933333-106.666667 106.666667-106.666667s106.666667 46.933333 106.666667 106.666667c0 6.4-2.133333 14.933333-4.266667 25.6-12.8-46.933333-53.333333-78.933333-102.4-78.933334z"  horiz-adv-x="1024" />

    
    <glyph glyph-name="EMOJI-5" unicode="&#58950;" d="M418.133333 465.066667m-403.2 0a403.2 403.2 0 1 1 806.4 0 403.2 403.2 0 1 1-806.4 0ZM418.133333 868.266667C196.266667 868.266667 17.066667 686.933333 17.066667 465.066667s181.333333-403.2 403.2-403.2 403.2 181.333333 403.2 403.2-181.333333 403.2-405.333334 403.2z m0-746.666667c-202.666667 0-366.933333 164.266667-366.933333 366.933333S215.466667 855.466667 418.133333 855.466667 787.2 693.333333 787.2 490.666667c0-204.8-164.266667-369.066667-369.066667-369.066667zM296.533333 787.2a121.6 29.866667 0 1 1 243.2 0 121.6 29.866667 0 1 1-243.2 0ZM96-68.266667a322.133333 29.866667 0 1 1 644.266667 0 322.133333 29.866667 0 1 1-644.266667 0ZM610.133333 364.8a51.2 29.866667 0 1 1 102.4 0 51.2 29.866667 0 1 1-102.4 0ZM125.866667 364.8a51.2 29.866667 0 1 1 102.4 0 51.2 29.866667 0 1 1-102.4 0ZM187.733333 465.066667m-19.2 0a19.2 19.2 0 1 1 38.4 0 19.2 19.2 0 1 1-38.4 0ZM1002.666667 454.4c0-4.266667-2.133333-6.4-6.4-8.533333-4.266667-2.133333-6.4-2.133333-10.666667 0l-104.533333 40.533333c-4.266667 2.133333-8.533333 6.4-8.533334 12.8s4.266667 10.666667 10.666667 10.666667l108.8 12.8c4.266667 0 6.4 0 10.666667-4.266667 2.133333-2.133333 4.266667-6.4 4.266666-10.666667l-4.266666-53.333333zM987.733333 674.133333c-2.133333 4.266667-4.266667 6.4-8.533333 8.533334-4.266667 2.133333-8.533333 0-10.666667-2.133334L876.8 618.666667c-4.266667-2.133333-6.4-8.533333-4.266667-14.933334 2.133333-4.266667 6.4-8.533333 12.8-8.533333l110.933334 10.666667c4.266667 0 6.4 2.133333 8.533333 6.4 2.133333 2.133333 2.133333 6.4 2.133333 10.666666l-19.2 51.2zM864 814.933333c-2.133333 2.133333-6.4 2.133333-10.666667 2.133334-4.266667-2.133333-6.4-4.266667-8.533333-8.533334l-36.266667-106.666666c-2.133333-4.266667 0-10.666667 4.266667-14.933334 4.266667-2.133333 10.666667-2.133333 14.933333 2.133334l81.066667 74.666666c2.133333 2.133333 4.266667 6.4 4.266667 10.666667s-2.133333 6.4-4.266667 8.533333l-44.8 32z"  horiz-adv-x="1024" />

    
    <glyph glyph-name="EMOJI-6" unicode="&#58951;" d="M512 441.6m-426.666667 0a426.666667 426.666667 0 1 1 853.333334 0 426.666667 426.666667 0 1 1-853.333334 0ZM512 868.266667c-234.666667 0-426.666667-192-426.666667-426.666667s192-426.666667 426.666667-426.666667 426.666667 192 426.666667 426.666667-192 426.666667-426.666667 426.666667z m0-789.333334C296.533333 78.933333 123.733333 253.866667 123.733333 469.333333 123.733333 682.666667 296.533333 857.6 512 857.6S900.266667 682.666667 900.266667 469.333333c0-215.466667-172.8-390.4-388.266667-390.4zM384 782.933333a128 32 0 1 1 256 0 128 32 0 1 1-256 0ZM170.666667-68.266667a341.333333 32 0 1 1 682.666666 0 341.333333 32 0 1 1-682.666666 0ZM714.666667 334.933333a53.333333 32 0 1 1 106.666666 0 53.333333 32 0 1 1-106.666666 0ZM202.666667 334.933333a53.333333 32 0 1 1 106.666666 0 53.333333 32 0 1 1-106.666666 0ZM337.066667 428.8c0-12.8-10.666667-23.466667-23.466667-23.466667-12.8 0-23.466667 10.666667-23.466667 23.466667 0 10.666667-61.866667 23.466667-61.866666 23.466667h83.2c14.933333 0 25.6-10.666667 25.6-23.466667zM785.066667 428.8c0-12.8-10.666667-23.466667-23.466667-23.466667-12.8 0-23.466667 10.666667-23.466667 23.466667 0 10.666667-61.866667 23.466667-61.866666 23.466667h83.2c14.933333 0 25.6-10.666667 25.6-23.466667z"  horiz-adv-x="1024" />

    
    <glyph glyph-name="EMOJI-7" unicode="&#58952;" d="M512 441.6m-426.666667 0a426.666667 426.666667 0 1 1 853.333334 0 426.666667 426.666667 0 1 1-853.333334 0ZM512 868.266667c-234.666667 0-426.666667-192-426.666667-426.666667s192-426.666667 426.666667-426.666667 426.666667 192 426.666667 426.666667-192 426.666667-426.666667 426.666667z m0-789.333334C296.533333 78.933333 123.733333 253.866667 123.733333 469.333333 123.733333 682.666667 296.533333 857.6 512 857.6S900.266667 682.666667 900.266667 469.333333c0-215.466667-172.8-390.4-388.266667-390.4zM384 782.933333a128 32 0 1 1 256 0 128 32 0 1 1-256 0ZM170.666667-68.266667a341.333333 32 0 1 1 682.666666 0 341.333333 32 0 1 1-682.666666 0ZM298.666667 441.6m-21.333334 0a21.333333 21.333333 0 1 1 42.666667 0 21.333333 21.333333 0 1 1-42.666667 0ZM714.666667 441.6m-21.333334 0a21.333333 21.333333 0 1 1 42.666667 0 21.333333 21.333333 0 1 1-42.666667 0ZM714.666667 334.933333a53.333333 32 0 1 1 106.666666 0 53.333333 32 0 1 1-106.666666 0ZM202.666667 334.933333a53.333333 32 0 1 1 106.666666 0 53.333333 32 0 1 1-106.666666 0Z"  horiz-adv-x="1024" />

    
    <glyph glyph-name="EMOJI-8" unicode="&#58953;" d="M512 437.333333m-426.666667 0a426.666667 426.666667 0 1 1 853.333334 0 426.666667 426.666667 0 1 1-853.333334 0ZM512 864c-234.666667 0-426.666667-192-426.666667-426.666667s192-426.666667 426.666667-426.666666 426.666667 192 426.666667 426.666666-192 426.666667-426.666667 426.666667z m0-789.333333c-215.466667 0-388.266667 174.933333-388.266667 388.266666C121.6 678.4 296.533333 853.333333 512 853.333333s388.266667-174.933333 388.266667-388.266666c0-217.6-172.8-390.4-388.266667-390.4zM381.866667 778.666667a128 32 0 1 1 256 0 128 32 0 1 1-256 0ZM170.666667-64a341.333333 32 0 1 1 682.666666 0 341.333333 32 0 1 1-682.666666 0ZM381.866667 270.933333c-6.4 0-10.666667-2.133333-14.933334-6.4-4.266667-4.266667-4.266667-10.666667-4.266666-14.933333 10.666667-72.533333 74.666667-128 149.333333-128s138.666667 55.466667 149.333333 128c0 6.4 0 10.666667-4.266666 17.066667s-8.533333 6.4-14.933334 6.4H381.866667zM631.466667 179.2c-29.866667 17.066667-72.533333 27.733333-119.466667 27.733333-46.933333 0-89.6-10.666667-119.466667-27.733333 27.733333-36.266667 70.4-57.6 119.466667-57.6s91.733333 21.333333 119.466667 57.6zM885.333333 386.133333c2.133333 0 6.4 4.266667 6.4 6.4 0 2.133333-2.133333 6.4-6.4 6.4-106.666667 29.866667-115.2 38.4-145.066666 145.066667 0 2.133333-4.266667 6.4-6.4 6.4-2.133333 0-6.4-2.133333-6.4-6.4-29.866667-106.666667-38.4-115.2-145.066667-145.066667-2.133333 0-6.4-4.266667-6.4-6.4 0-2.133333 2.133333-6.4 6.4-6.4 106.666667-29.866667 115.2-38.4 145.066667-145.066666 0-2.133333 4.266667-6.4 6.4-6.4 2.133333 0 6.4 2.133333 6.4 6.4 29.866667 106.666667 38.4 115.2 145.066666 145.066666zM443.733333 386.133333c2.133333 0 6.4 4.266667 6.4 6.4 0 2.133333-2.133333 6.4-6.4 6.4-106.666667 29.866667-115.2 38.4-145.066666 145.066667 0 2.133333-4.266667 6.4-6.4 6.4-2.133333 0-6.4-2.133333-6.4-6.4-29.866667-106.666667-38.4-115.2-145.066667-145.066667-2.133333 0-6.4-4.266667-6.4-6.4 0-2.133333 2.133333-6.4 6.4-6.4 106.666667-29.866667 115.2-38.4 145.066667-145.066666 0-2.133333 4.266667-6.4 6.4-6.4 2.133333 0 6.4 2.133333 6.4 6.4 29.866667 106.666667 38.4 115.2 145.066666 145.066666z"  horiz-adv-x="1024" />

    
    <glyph glyph-name="EMOJI-9" unicode="&#58954;" d="M170.666667-68.266667a341.333333 32 0 1 1 682.666666 0 341.333333 32 0 1 1-682.666666 0ZM512 441.6m-426.666667 0a426.666667 426.666667 0 1 1 853.333334 0 426.666667 426.666667 0 1 1-853.333334 0ZM512 868.266667c-234.666667 0-426.666667-192-426.666667-426.666667s192-426.666667 426.666667-426.666667 426.666667 192 426.666667 426.666667-192 426.666667-426.666667 426.666667z m0-789.333334C296.533333 78.933333 123.733333 253.866667 123.733333 469.333333 123.733333 682.666667 296.533333 857.6 512 857.6S900.266667 682.666667 900.266667 469.333333c0-215.466667-172.8-390.4-388.266667-390.4zM384 782.933333a128 32 0 1 1 256 0 128 32 0 1 1-256 0ZM381.866667 270.933333c-6.4 0-10.666667-2.133333-14.933334-6.4-4.266667-4.266667-4.266667-10.666667-4.266666-17.066666 10.666667-72.533333 74.666667-125.866667 149.333333-125.866667s138.666667 53.333333 149.333333 125.866667c0 6.4 0 10.666667-4.266666 17.066666-4.266667 4.266667-8.533333 6.4-14.933334 6.4H381.866667zM631.466667 179.2c-29.866667 17.066667-72.533333 27.733333-119.466667 27.733333-46.933333 0-89.6-10.666667-119.466667-27.733333 27.733333-36.266667 70.4-57.6 119.466667-57.6s91.733333 21.333333 119.466667 57.6zM693.333333 55.466667c38.4 19.2 74.666667 42.666667 106.666667 72.533333V441.6h-106.666667v-386.133333zM330.666667 55.466667c-38.4 19.2-74.666667 42.666667-106.666667 72.533333V441.6h106.666667v-386.133333z"  horiz-adv-x="1024" />

    
    <glyph glyph-name="EMOJI-10" unicode="&#58955;" d="M518.4 441.6m-426.666667 0a426.666667 426.666667 0 1 1 853.333334 0 426.666667 426.666667 0 1 1-853.333334 0ZM518.4 868.266667c-234.666667 0-426.666667-192-426.666667-426.666667s192-426.666667 426.666667-426.666667 426.666667 192 426.666667 426.666667-189.866667 426.666667-426.666667 426.666667z m0-789.333334c-213.333333 0-388.266667 174.933333-388.266667 390.4 0 213.333333 174.933333 388.266667 388.266667 388.266667S908.8 682.666667 908.8 469.333333c0-215.466667-174.933333-390.4-390.4-390.4zM390.4 782.933333a128 32 0 1 1 256 0 128 32 0 1 1-256 0ZM177.066667-68.266667a341.333333 32 0 1 1 682.666666 0 341.333333 32 0 1 1-682.666666 0ZM721.066667 334.933333a53.333333 32 0 1 1 106.666666 0 53.333333 32 0 1 1-106.666666 0ZM209.066667 334.933333a53.333333 32 0 1 1 106.666666 0 53.333333 32 0 1 1-106.666666 0Z"  horiz-adv-x="1024" />

    
    <glyph glyph-name="EMOJI-11" unicode="&#58956;" d="M247.466667-72.533333a264.533333 36.266667 0 1 1 529.066666 0 264.533333 36.266667 0 1 1-529.066666 0ZM512 518.4m-349.866667 0a349.866667 349.866667 0 1 1 699.733334 0 349.866667 349.866667 0 1 1-699.733334 0ZM512 868.266667c-192 0-349.866667-155.733333-349.866667-349.866667S320 168.533333 512 168.533333s349.866667 155.733333 349.866667 349.866667S704 868.266667 512 868.266667z m0-646.4c-174.933333 0-317.866667 142.933333-317.866667 317.866666 0 177.066667 142.933333 320 317.866667 320s317.866667-142.933333 317.866667-317.866666c0-177.066667-142.933333-320-317.866667-320zM407.466667 797.866667a104.533333 25.6 0 1 1 209.066666 0 104.533333 25.6 0 1 1-209.066666 0ZM704 430.933333a42.666667 25.6 0 1 1 85.333333 0 42.666667 25.6 0 1 1-85.333333 0ZM234.666667 430.933333a42.666667 25.6 0 1 1 85.333333 0 42.666667 25.6 0 1 1-85.333333 0ZM379.733333 413.866667c8.533333-140.8 89.6-198.4 119.466667-215.466667 6.4-4.266667 17.066667-4.266667 23.466667 0 29.866667 17.066667 110.933333 74.666667 119.466666 215.466667 0 12.8-10.666667 25.6-23.466666 25.6H403.2c-12.8 0-23.466667-12.8-23.466667-25.6zM512 317.866667c0 25.6 78.933333 19.2 78.933333-8.533334v-113.066666c0-42.666667-34.133333-78.933333-78.933333-78.933334s-78.933333 34.133333-78.933333 78.933334v113.066666c0 27.733333 78.933333 34.133333 78.933333 8.533334zM512 317.866667c0 25.6-78.933333 19.2-78.933333-8.533334v-34.133333c0 27.733333 157.866667 27.733333 157.866666 0v34.133333c0 27.733333-78.933333 34.133333-78.933333 8.533334zM599.466667 17.066667c0-53.333333-70.4-53.333333-70.4 0 0 29.866667 34.133333 72.533333 34.133333 72.533333s36.266667-40.533333 36.266667-72.533333zM644.266667 840.533333a192.853333 192.853333 0 0 1-115.2-177.066666c0-108.8 87.466667-196.266667 196.266666-196.266667 53.333333 0 100.266667 21.333333 134.4 53.333333 0 145.066667-87.466667 268.8-215.466666 320zM714.666667 695.466667m-181.333334 0a181.333333 181.333333 0 1 1 362.666667 0 181.333333 181.333333 0 1 1-362.666667 0ZM714.666667 548.266667c-93.866667 0-170.666667 72.533333-179.2 164.266666v-17.066666c0-100.266667 81.066667-181.333333 181.333333-181.333334s181.333333 81.066667 181.333333 181.333334v17.066666c-10.666667-91.733333-89.6-164.266667-183.466666-164.266666zM714.666667 819.2c89.6 0 164.266667-66.133333 179.2-153.6 2.133333 10.666667 2.133333 19.2 2.133333 29.866667C896 795.733333 814.933333 876.8 714.666667 876.8S533.333333 795.733333 533.333333 695.466667c0-10.666667 0-19.2 2.133334-27.733334 14.933333 85.333333 89.6 151.466667 179.2 151.466667zM379.733333 840.533333C448 810.666667 494.933333 740.266667 494.933333 661.333333c0-108.8-87.466667-196.266667-196.266666-196.266666-53.333333 0-100.266667 21.333333-134.4 53.333333 0 147.2 87.466667 270.933333 215.466666 322.133333zM309.333333 695.466667m-181.333333 0a181.333333 181.333333 0 1 1 362.666667 0 181.333333 181.333333 0 1 1-362.666667 0ZM309.333333 548.266667c93.866667 0 170.666667 72.533333 179.2 164.266666v-17.066666c0-100.266667-81.066667-181.333333-181.333333-181.333334-98.133333 0-179.2 81.066667-179.2 181.333334v17.066666c8.533333-91.733333 87.466667-164.266667 181.333333-164.266666zM309.333333 819.2c-89.6 0-164.266667-66.133333-179.2-153.6-2.133333 10.666667-2.133333 19.2-2.133333 29.866667C128 795.733333 209.066667 876.8 309.333333 876.8S490.666667 795.733333 490.666667 695.466667c0-10.666667 0-19.2-2.133334-27.733334-14.933333 85.333333-89.6 151.466667-179.2 151.466667z"  horiz-adv-x="1024" />

    
    <glyph glyph-name="EMOJI-12" unicode="&#58957;" d="M347.733333-81.066667a249.6 34.133333 0 1 1 499.2 0 249.6 34.133333 0 1 1-499.2 0ZM597.333333 309.333333m-288 0a288 288 0 1 1 576 0 288 288 0 1 1-576 0ZM597.333333 597.333333c-157.866667 0-288-128-288-288S437.333333 21.333333 597.333333 21.333333c157.866667 0 288 128 288 288S757.333333 597.333333 597.333333 597.333333z m0-531.2c-145.066667 0-262.4 117.333333-262.4 262.4 0 145.066667 117.333333 262.4 262.4 262.4 145.066667 0 262.4-117.333333 262.4-262.4 0-145.066667-117.333333-262.4-262.4-262.4zM597.333333 170.666667m-115.2 0a115.2 115.2 0 1 1 230.4 0 115.2 115.2 0 1 1-230.4 0ZM597.333333 162.133333c-40.533333 0-76.8-21.333333-98.133333-53.333333 21.333333-32 55.466667-53.333333 98.133333-53.333333s76.8 21.333333 98.133334 53.333333c-21.333333 32-55.466667 53.333333-98.133334 53.333333zM631.466667 516.266667l-125.866667 23.466666c-8.533333 2.133333-14.933333 6.4-14.933333 14.933334-2.133333 8.533333 2.133333 14.933333 8.533333 21.333333l115.2 85.333333-81.066667 14.933334c-10.666667 2.133333-17.066667 12.8-14.933333 23.466666 2.133333 10.666667 12.8 17.066667 23.466667 14.933334l125.866666-23.466667c8.533333-2.133333 14.933333-6.4 14.933334-14.933333 2.133333-8.533333-2.133333-14.933333-8.533334-21.333334l-115.2-85.333333 81.066667-14.933333c10.666667-2.133333 17.066667-12.8 14.933333-23.466667-2.133333-10.666667-12.8-17.066667-23.466666-14.933333zM401.066667 388.266667L298.666667 347.733333c-6.4-2.133333-12.8-2.133333-19.2 4.266667-4.266667 4.266667-6.4 12.8-4.266667 19.2l44.8 115.2-66.133333-27.733333c-8.533333-4.266667-19.2 0-21.333334 8.533333-4.266667 8.533333 0 19.2 8.533334 21.333333l102.4 40.533334c6.4 2.133333 12.8 2.133333 19.2-4.266667 4.266667-4.266667 6.4-12.8 4.266666-19.2l-44.8-115.2 66.133334 27.733333c8.533333 4.266667 19.2 0 21.333333-8.533333 4.266667-8.533333 0-17.066667-8.533333-21.333333zM460.8 590.933333l-241.066667-46.933333c-12.8-2.133333-25.6 2.133333-32 12.8-6.4 10.666667-6.4 23.466667 0 34.133333L341.333333 806.4 174.933333 774.4c-17.066667-4.266667-32 8.533333-36.266666 23.466667-2.133333 17.066667 8.533333 34.133333 25.6 36.266666L405.333333 881.066667c12.8 2.133333 25.6-2.133333 32-12.8 6.4-10.666667 6.4-23.466667 0-34.133334L283.733333 618.666667l166.4 32c17.066667 4.266667 32-8.533333 36.266667-23.466667 2.133333-17.066667-8.533333-34.133333-25.6-36.266667zM174.933333 802.133333l241.066667 46.933334c8.533333 2.133333 17.066667 0 23.466667-4.266667 2.133333 8.533333 2.133333 17.066667-4.266667 25.6-6.4 10.666667-19.2 14.933333-32 12.8L164.266667 834.133333c-17.066667-2.133333-27.733333-19.2-25.6-36.266666 2.133333-8.533333 6.4-14.933333 12.8-19.2 4.266667 10.666667 12.8 21.333333 23.466666 23.466666zM755.2 224a36.266667 21.333333 0 1 1 72.533333 0 36.266667 21.333333 0 1 1-72.533333 0ZM369.066667 224a36.266667 21.333333 0 1 1 72.533333 0 36.266667 21.333333 0 1 1-72.533333 0ZM633.6 53.333333c0 14.933333 8.533333 27.733333 21.333333 34.133334 4.266667 2.133333 10.666667 6.4 12.8 10.666666l12.8 14.933334c2.133333 4.266667 6.4 6.4 10.666667 6.4 8.533333 0 14.933333-6.4 14.933333-14.933334V64c0-14.933333-10.666667-25.6-25.6-25.6h-10.666666v-115.2c0-10.666667-8.533333-17.066667-17.066667-17.066667s-17.066667 8.533333-17.066667 17.066667v130.133333z"  horiz-adv-x="1024" />

    
    <glyph glyph-name="EMOJI-13" unicode="&#58958;" d="M512 448m-426.666667 0a426.666667 426.666667 0 1 1 853.333334 0 426.666667 426.666667 0 1 1-853.333334 0ZM512 874.666667C277.333333 874.666667 85.333333 682.666667 85.333333 448s192-426.666667 426.666667-426.666667 426.666667 192 426.666667 426.666667S746.666667 874.666667 512 874.666667z m0-789.333334C296.533333 85.333333 123.733333 258.133333 123.733333 473.6S296.533333 864 512 864s388.266667-174.933333 388.266667-388.266667C900.266667 258.133333 727.466667 85.333333 512 85.333333zM384 789.333333a128 32 0 1 1 256 0 128 32 0 1 1-256 0ZM226.133333 409.6a53.333333 32 0 1 1 106.666667 0 53.333333 32 0 1 1-106.666667 0ZM691.2 409.6a53.333333 32 0 1 1 106.666667 0 53.333333 32 0 1 1-106.666667 0ZM334.933333 309.333333c-6.4 0-12.8-2.133333-14.933333-6.4-4.266667-4.266667-6.4-10.666667-4.266667-17.066666 12.8-98.133333 96-174.933333 198.4-174.933334 102.4 0 185.6 76.8 198.4 174.933334 0 6.4-2.133333 12.8-4.266666 17.066666-4.266667 4.266667-10.666667 6.4-14.933334 6.4H334.933333zM669.866667 185.6c-38.4 23.466667-93.866667 36.266667-157.866667 36.266667s-117.333333-14.933333-157.866667-36.266667c36.266667-46.933333 93.866667-76.8 157.866667-76.8s119.466667 29.866667 157.866667 76.8zM672 217.6c4.266667 8.533333 17.066667 6.4 17.066667-4.266667v-196.266666c0-19.2-14.933333-34.133333-34.133334-34.133334-19.2 0-34.133333 14.933333-34.133333 34.133334v104.533333c0 19.2 8.533333 40.533333 21.333333 53.333333 10.666667 12.8 21.333333 25.6 29.866667 42.666667zM170.666667-74.666667a341.333333 32 0 1 1 682.666666 0 341.333333 32 0 1 1-682.666666 0ZM620.8 475.733333l-53.333333 123.733334c-8.533333 23.466667-8.533333 49.066667 2.133333 72.533333 8.533333 21.333333 27.733333 36.266667 49.066667 42.666667 29.866667 6.4 57.6-10.666667 68.266666-40.533334l10.666667-32 29.866667 14.933334c27.733333 12.8 59.733333 2.133333 74.666666-23.466667 10.666667-19.2 10.666667-42.666667 2.133334-64-10.666667-23.466667-29.866667-42.666667-53.333334-51.2l-130.133333-42.666667zM593.066667 654.933333c29.866667 6.4 57.6-10.666667 68.266666-40.533333l10.666667-32 29.866667 14.933333c27.733333 12.8 59.733333 2.133333 74.666666-23.466666 6.4-10.666667 8.533333-21.333333 8.533334-34.133334 8.533333 8.533333 14.933333 17.066667 19.2 27.733334 8.533333 21.333333 8.533333 44.8-2.133334 64-14.933333 27.733333-46.933333 36.266667-74.666666 23.466666l-29.866667-14.933333-10.666667 32c-8.533333 32-38.4 49.066667-68.266666 42.666667-21.333333-4.266667-38.4-21.333333-49.066667-42.666667-4.266667-10.666667-8.533333-23.466667-8.533333-34.133333 10.666667 8.533333 21.333333 14.933333 32 17.066666zM390.4 471.466667l-189.866667 81.066666c-34.133333 14.933333-61.866667 44.8-76.8 83.2-12.8 34.133333-8.533333 70.4 10.666667 98.133334 25.6 38.4 74.666667 51.2 117.333333 27.733333l44.8-25.6 19.2 46.933333c19.2 44.8 64 66.133333 108.8 53.333334 32-10.666667 57.6-36.266667 70.4-70.4 12.8-38.4 10.666667-78.933333-6.4-113.066667l-98.133333-181.333333zM168.533333 640c25.6 38.4 74.666667 51.2 117.333334 27.733333l44.8-25.6 19.2 46.933334c19.2 44.8 64 66.133333 108.8 53.333333 17.066667-4.266667 32-14.933333 44.8-27.733333 0 17.066667-2.133333 36.266667-8.533334 53.333333-12.8 34.133333-38.4 59.733333-70.4 70.4-44.8 14.933333-89.6-8.533333-108.8-53.333333l-19.2-46.933334-44.8 25.6c-42.666667 23.466667-91.733333 10.666667-117.333333-27.733333-19.2-27.733333-21.333333-64-10.666667-98.133333 6.4-17.066667 14.933333-32 27.733334-46.933334 2.133333 17.066667 6.4 34.133333 17.066666 49.066667z"  horiz-adv-x="1024" />

    
    <glyph glyph-name="EMOJI-14" unicode="&#58959;" d="M938.666667 490.666667c0-234.666667-288-480-426.666667-480S85.333333 253.866667 85.333333 490.666667 277.333333 864 512 864 938.666667 725.333333 938.666667 490.666667zM512 76.8c-132.266667 0-401.066667 224-424.533333 448-2.133333-10.666667-2.133333-23.466667-2.133334-34.133333 0-234.666667 288-480 426.666667-480S938.666667 253.866667 938.666667 490.666667c0 12.8 0 23.466667-2.133334 36.266666C913.066667 298.666667 644.266667 76.8 512 76.8zM172.8-64a341.333333 32 0 1 1 682.666667 0 341.333333 32 0 1 1-682.666667 0ZM791.466667 629.333333c51.2-38.4 51.2-121.6 4.266666-185.6-49.066667-64-134.4-74.666667-192-66.133333-34.133333 49.066667-40.533333 140.8 8.533334 204.8 49.066667 66.133333 128 85.333333 179.2 46.933333zM791.466667 571.733333c-51.2 38.4-130.133333 19.2-179.2-44.8-19.2-23.466667-27.733333-51.2-32-81.066666-6.4 44.8 2.133333 98.133333 32 138.666666 49.066667 64 128 83.2 179.2 44.8 34.133333-25.6 44.8-70.4 36.266666-115.2-6.4 23.466667-17.066667 44.8-36.266666 57.6zM232.533333 629.333333c-51.2-38.4-51.2-121.6-4.266666-185.6 49.066667-64 134.4-74.666667 192-66.133333 34.133333 49.066667 40.533333 140.8-8.533334 204.8-49.066667 66.133333-128 85.333333-179.2 46.933333zM232.533333 571.733333c51.2 38.4 130.133333 19.2 179.2-44.8 19.2-23.466667 27.733333-51.2 32-81.066666 6.4 44.8-2.133333 98.133333-32 138.666666-49.066667 64-128 83.2-179.2 44.8-34.133333-25.6-44.8-70.4-36.266666-115.2 6.4 23.466667 17.066667 44.8 36.266666 57.6zM691.2 294.4a53.333333 32 0 1 1 106.666667 0 53.333333 32 0 1 1-106.666667 0ZM230.4 294.4a53.333333 32 0 1 1 106.666667 0 53.333333 32 0 1 1-106.666667 0ZM384 780.8a128 32 0 1 1 256 0 128 32 0 1 1-256 0Z"  horiz-adv-x="1024" />

    
    <glyph glyph-name="EMOJI-15" unicode="&#58960;" d="M281.6-44.8a234.666667 32 0 1 1 469.333333 0 234.666667 32 0 1 1-469.333333 0ZM516.266667 844.8c-209.066667 0-377.6-168.533333-377.6-377.6 0-266.666667 121.6-217.6 121.6-375.466667 0-29.866667 36.266667-57.6 66.133333-57.6 59.733333 0 70.4 38.4 72.533333 72.533334 2.133333 12.8 12.8 21.333333 23.466667 21.333333 12.8 0 25.6-10.666667 25.6-25.6v-4.266667c0-36.266667 29.866667-66.133333 66.133333-66.133333s66.133333 29.866667 66.133334 66.133333v4.266667c0 12.8 10.666667 23.466667 23.466666 23.466667 12.8 0 23.466667-8.533333 23.466667-21.333334 4.266667-34.133333 14.933333-72.533333 72.533333-72.533333 29.866667 0 66.133333 25.6 66.133334 57.6 0 160 121.6 110.933333 121.6 375.466667 6.4 211.2-162.133333 379.733333-371.2 379.733333zM533.333333 277.333333c-4.266667 6.4-10.666667 10.666667-17.066666 10.666667s-12.8-4.266667-17.066667-10.666667l-25.6-44.8c-2.133333-6.4-2.133333-12.8 0-19.2 4.266667-6.4 8.533333-8.533333 17.066667-8.533333h49.066666c6.4 0 12.8 4.266667 17.066667 8.533333 4.266667 6.4 4.266667 12.8 0 19.2L533.333333 277.333333zM352 377.6m-89.6 0a89.6 89.6 0 1 1 179.2 0 89.6 89.6 0 1 1-179.2 0ZM352 428.8c42.666667 0 78.933333-29.866667 87.466667-70.4 2.133333 6.4 2.133333 12.8 2.133333 19.2 0 49.066667-40.533333 89.6-89.6 89.6s-89.6-40.533333-89.6-89.6c0-6.4 0-12.8 2.133333-19.2 8.533333 40.533333 44.8 70.4 87.466667 70.4zM680.533333 377.6m-89.6 0a89.6 89.6 0 1 1 179.2 0 89.6 89.6 0 1 1-179.2 0ZM680.533333 428.8c42.666667 0 78.933333-29.866667 87.466667-70.4 2.133333 6.4 2.133333 12.8 2.133333 19.2 0 49.066667-40.533333 89.6-89.6 89.6s-89.6-40.533333-89.6-89.6c0-6.4 0-12.8 2.133334-19.2 8.533333 40.533333 44.8 70.4 87.466666 70.4zM403.2 768a113.066667 27.733333 0 1 1 226.133333 0 113.066667 27.733333 0 1 1-226.133333 0Z"  horiz-adv-x="1024" />

    
    <glyph glyph-name="EMOJI-16" unicode="&#58961;" d="M512 437.333333m-426.666667 0a426.666667 426.666667 0 1 1 853.333334 0 426.666667 426.666667 0 1 1-853.333334 0ZM512 864c-234.666667 0-426.666667-192-426.666667-426.666667s192-426.666667 426.666667-426.666666 426.666667 192 426.666667 426.666666-192 426.666667-426.666667 426.666667z m0-789.333333c-215.466667 0-388.266667 174.933333-388.266667 388.266666C123.733333 678.4 296.533333 853.333333 512 853.333333s388.266667-174.933333 388.266667-388.266666c0-215.466667-172.8-390.4-388.266667-390.4zM384 778.666667a128 32 0 1 1 256 0 128 32 0 1 1-256 0ZM170.666667-64a341.333333 32 0 1 1 682.666666 0 341.333333 32 0 1 1-682.666666 0ZM714.666667 330.666667a53.333333 32 0 1 1 106.666666 0 53.333333 32 0 1 1-106.666666 0ZM202.666667 330.666667a53.333333 32 0 1 1 106.666666 0 53.333333 32 0 1 1-106.666666 0Z"  horiz-adv-x="1024" />

    
    <glyph glyph-name="EMOJI-17" unicode="&#58962;" d="M277.333333-46.933333a234.666667 32 0 1 1 469.333334 0 234.666667 32 0 1 1-469.333334 0ZM810.666667 392.533333c12.8 17.066667 19.2 38.4 19.2 61.866667 0 61.866667-40.533333 106.666667-136.533334 106.666667 19.2 17.066667 29.866667 40.533333 29.866667 68.266666 0 51.2-40.533333 91.733333-91.733333 91.733334h-110.933334c-21.333333 6.4-46.933333 55.466667-34.133333 108.8 0 4.266667 0 10.666667-4.266667 12.8-4.266667 4.266667-8.533333 4.266667-12.8 4.266666-168.533333-25.6-200.533333-234.666667-151.466666-285.866666-132.266667 0-149.333333-108.8-108.8-168.533334-196.266667-64-149.333333-354.133333 55.466666-354.133333h484.266667c211.2 0 258.133333 290.133333 61.866667 354.133333zM300.8 343.466667c-42.666667 57.6-23.466667 168.533333 108.8 168.533333-40.533333 42.666667-25.6 196.266667 78.933333 260.266667-4.266667 17.066667-4.266667 36.266667 0 55.466666 0 4.266667 0 10.666667-4.266666 12.8-4.266667 4.266667-8.533333 4.266667-12.8 4.266667-168.533333-25.6-200.533333-234.666667-151.466667-285.866667-132.266667 0-149.333333-108.8-108.8-168.533333-179.2-57.6-153.6-311.466667 14.933333-347.733333-83.2 87.466667-68.266667 253.866667 74.666667 300.8zM300.8 322.133333m-19.2 0a19.2 19.2 0 1 1 38.4 0 19.2 19.2 0 1 1-38.4 0ZM300.8 322.133333m-19.2 0a19.2 19.2 0 1 1 38.4 0 19.2 19.2 0 1 1-38.4 0ZM738.133333 322.133333m-19.2 0a19.2 19.2 0 1 1 38.4 0 19.2 19.2 0 1 1-38.4 0ZM388.266667 253.866667c-6.4 0-10.666667-2.133333-14.933334-6.4s-6.4-10.666667-4.266666-14.933334c10.666667-70.4 70.4-123.733333 142.933333-123.733333 72.533333 0 132.266667 53.333333 142.933333 123.733333 0 6.4 0 10.666667-4.266666 14.933334-4.266667 4.266667-8.533333 6.4-14.933334 6.4H388.266667zM627.2 164.266667C597.333333 181.333333 556.8 192 512 192s-85.333333-10.666667-115.2-27.733333c25.6-34.133333 68.266667-55.466667 115.2-55.466667s87.466667 21.333333 115.2 55.466667zM194.133333 226.133333a49.066667 29.866667 0 1 1 98.133334 0 49.066667 29.866667 0 1 1-98.133334 0ZM746.666667 226.133333a49.066667 29.866667 0 1 1 98.133333 0 49.066667 29.866667 0 1 1-98.133333 0Z"  horiz-adv-x="1024" />

    
    <glyph glyph-name="EMOJI-18" unicode="&#58963;" d="M170.666667-61.866667a341.333333 32 0 1 1 682.666666 0 341.333333 32 0 1 1-682.666666 0ZM512 435.2m-426.666667 0a426.666667 426.666667 0 1 1 853.333334 0 426.666667 426.666667 0 1 1-853.333334 0ZM512 861.866667c-234.666667 0-426.666667-192-426.666667-426.666667s192-426.666667 426.666667-426.666667 426.666667 192 426.666667 426.666667-192 426.666667-426.666667 426.666667z m0-789.333334c-215.466667 0-388.266667 174.933333-388.266667 388.266667C123.733333 678.4 296.533333 851.2 512 851.2s388.266667-174.933333 388.266667-388.266667c2.133333-215.466667-172.8-390.4-388.266667-390.4zM384 776.533333a128 32 0 1 1 256 0 128 32 0 1 1-256 0ZM714.666667 328.533333a53.333333 32 0 1 1 106.666666 0 53.333333 32 0 1 1-106.666666 0ZM202.666667 328.533333a53.333333 32 0 1 1 106.666666 0 53.333333 32 0 1 1-106.666666 0ZM288 456.533333m-21.333333 0a21.333333 21.333333 0 1 1 42.666666 0 21.333333 21.333333 0 1 1-42.666666 0ZM714.666667 477.866667a32 21.333333 90 1 1 42.666666 0 32 21.333333 90 1 1-42.666666 0Z"  horiz-adv-x="1024" />

    
    <glyph glyph-name="EMOJI-19" unicode="&#58964;" d="M512 441.6m-426.666667 0a426.666667 426.666667 0 1 1 853.333334 0 426.666667 426.666667 0 1 1-853.333334 0ZM512 868.266667c-234.666667 0-426.666667-192-426.666667-426.666667s192-426.666667 426.666667-426.666667 426.666667 192 426.666667 426.666667-192 426.666667-426.666667 426.666667z m0-789.333334c-215.466667 0-388.266667 174.933333-388.266667 388.266667C123.733333 682.666667 296.533333 857.6 512 857.6S900.266667 682.666667 900.266667 467.2c0-213.333333-172.8-388.266667-388.266667-388.266667zM384 782.933333a128 32 0 1 1 256 0 128 32 0 1 1-256 0ZM170.666667-68.266667a341.333333 32 0 1 1 682.666666 0 341.333333 32 0 1 1-682.666666 0ZM714.666667 334.933333a53.333333 32 0 1 1 106.666666 0 53.333333 32 0 1 1-106.666666 0ZM202.666667 334.933333a53.333333 32 0 1 1 106.666666 0 53.333333 32 0 1 1-106.666666 0ZM661.333333 256c-42.666667-29.866667-93.866667-46.933333-147.2-49.066667 64-53.333333 46.933333-134.4 110.933334-125.866666 87.466667 10.666667 72.533333 125.866667 36.266666 174.933333zM661.333333 256c-10.666667-6.4-19.2-12.8-29.866666-19.2 25.6-44.8 36.266667-117.333333 0-153.6 81.066667 12.8 66.133333 123.733333 29.866666 172.8z"  horiz-adv-x="1024" />

    
    <glyph glyph-name="EMOJI-20" unicode="&#58965;" d="M512 433.066667m-426.666667 0a426.666667 426.666667 0 1 1 853.333334 0 426.666667 426.666667 0 1 1-853.333334 0ZM512 859.733333c-234.666667 0-426.666667-192-426.666667-426.666666s192-426.666667 426.666667-426.666667 426.666667 192 426.666667 426.666667-192 426.666667-426.666667 426.666666z m0-789.333333c-215.466667 0-388.266667 174.933333-388.266667 388.266667C123.733333 674.133333 296.533333 849.066667 512 849.066667s388.266667-174.933333 388.266667-388.266667c2.133333-215.466667-172.8-390.4-388.266667-390.4zM384 774.4a128 32 0 1 1 256 0 128 32 0 1 1-256 0ZM170.666667-57.6a341.333333 32 0 1 1 682.666666 0 341.333333 32 0 1 1-682.666666 0ZM320 465.066667m-74.666667 0a74.666667 74.666667 0 1 1 149.333334 0 74.666667 74.666667 0 1 1-149.333334 0ZM704 465.066667m-74.666667 0a74.666667 74.666667 0 1 1 149.333334 0 74.666667 74.666667 0 1 1-149.333334 0ZM522.666667 198.4m-32 0a32 32 0 1 1 64 0 32 32 0 1 1-64 0ZM725.333333 326.4a53.333333 32 0 1 1 106.666667 0 53.333333 32 0 1 1-106.666667 0ZM213.333333 326.4a53.333333 32 0 1 1 106.666667 0 53.333333 32 0 1 1-106.666667 0Z"  horiz-adv-x="1024" />

    
    <glyph glyph-name="EMOJI-21" unicode="&#58966;" d="M512 445.866667m-426.666667 0a426.666667 426.666667 0 1 1 853.333334 0 426.666667 426.666667 0 1 1-853.333334 0ZM512 872.533333c-234.666667 0-426.666667-192-426.666667-426.666666s192-426.666667 426.666667-426.666667 426.666667 192 426.666667 426.666667-192 426.666667-426.666667 426.666666z m0-789.333333c-215.466667 0-388.266667 174.933333-388.266667 388.266667C123.733333 689.066667 296.533333 861.866667 512 861.866667s388.266667-174.933333 388.266667-388.266667c0-215.466667-172.8-390.4-388.266667-390.4zM384 787.2a128 32 0 1 1 256 0 128 32 0 1 1-256 0ZM330.666667 424.533333m-21.333334 0a21.333333 21.333333 0 1 1 42.666667 0 21.333333 21.333333 0 1 1-42.666667 0ZM693.333333 424.533333m-21.333333 0a21.333333 21.333333 0 1 1 42.666667 0 21.333333 21.333333 0 1 1-42.666667 0ZM714.666667 328.533333a53.333333 32 0 1 1 106.666666 0 53.333333 32 0 1 1-106.666666 0ZM202.666667 328.533333a53.333333 32 0 1 1 106.666666 0 53.333333 32 0 1 1-106.666666 0ZM170.666667-72.533333a341.333333 32 0 1 1 682.666666 0 341.333333 32 0 1 1-682.666666 0Z"  horiz-adv-x="1024" />

    
    <glyph glyph-name="EMOJI-22" unicode="&#58967;" d="M512 441.6m-426.666667 0a426.666667 426.666667 0 1 1 853.333334 0 426.666667 426.666667 0 1 1-853.333334 0ZM512 868.266667c-234.666667 0-426.666667-192-426.666667-426.666667s192-426.666667 426.666667-426.666667 426.666667 192 426.666667 426.666667-192 426.666667-426.666667 426.666667z m0-789.333334c-215.466667 0-388.266667 174.933333-388.266667 388.266667C123.733333 682.666667 296.533333 857.6 512 857.6S902.4 682.666667 902.4 467.2c0-215.466667-174.933333-388.266667-390.4-388.266667zM384 782.933333a128 32 0 1 1 256 0 128 32 0 1 1-256 0ZM170.666667-68.266667a341.333333 32 0 1 1 682.666666 0 341.333333 32 0 1 1-682.666666 0ZM714.666667 398.933333a53.333333 32 0 1 1 106.666666 0 53.333333 32 0 1 1-106.666666 0ZM202.666667 398.933333a53.333333 32 0 1 1 106.666666 0 53.333333 32 0 1 1-106.666666 0ZM398.933333 494.933333m-21.333333 0a21.333333 21.333333 0 1 1 42.666667 0 21.333333 21.333333 0 1 1-42.666667 0ZM597.333333 492.8m-21.333333 0a21.333333 21.333333 0 1 1 42.666667 0 21.333333 21.333333 0 1 1-42.666667 0Z"  horiz-adv-x="1024" />

    
    <glyph glyph-name="EMOJI-23" unicode="&#58968;" d="M512 441.6m-426.666667 0a426.666667 426.666667 0 1 1 853.333334 0 426.666667 426.666667 0 1 1-853.333334 0ZM512 868.266667c-234.666667 0-426.666667-192-426.666667-426.666667s192-426.666667 426.666667-426.666667 426.666667 192 426.666667 426.666667-192 426.666667-426.666667 426.666667z m0-789.333334c-215.466667 0-388.266667 174.933333-388.266667 388.266667C123.733333 682.666667 296.533333 857.6 512 857.6S902.4 682.666667 902.4 467.2c0-213.333333-174.933333-388.266667-390.4-388.266667zM384 782.933333a128 32 0 1 1 256 0 128 32 0 1 1-256 0ZM170.666667-68.266667a341.333333 32 0 1 1 682.666666 0 341.333333 32 0 1 1-682.666666 0ZM714.666667 334.933333a53.333333 32 0 1 1 106.666666 0 53.333333 32 0 1 1-106.666666 0ZM202.666667 334.933333a53.333333 32 0 1 1 106.666666 0 53.333333 32 0 1 1-106.666666 0ZM512 228.266667m-160 0a160 160 0 1 1 320 0 160 160 0 1 1-320 0ZM512 217.6c-57.6 0-106.666667-29.866667-134.4-74.666667 27.733333-44.8 78.933333-74.666667 134.4-74.666666s106.666667 29.866667 134.4 74.666666c-27.733333 44.8-76.8 74.666667-134.4 74.666667z"  horiz-adv-x="1024" />

    
    <glyph glyph-name="EMOJI-24" unicode="&#58969;" d="M512 435.2m-426.666667 0a426.666667 426.666667 0 1 1 853.333334 0 426.666667 426.666667 0 1 1-853.333334 0ZM512 861.866667c-234.666667 0-426.666667-192-426.666667-426.666667s192-426.666667 426.666667-426.666667 426.666667 192 426.666667 426.666667-192 426.666667-426.666667 426.666667z m0-789.333334c-215.466667 0-388.266667 174.933333-388.266667 388.266667C123.733333 678.4 296.533333 851.2 512 851.2s388.266667-174.933333 388.266667-388.266667c2.133333-215.466667-172.8-390.4-388.266667-390.4zM379.733333 716.8a128 32 0 1 1 256 0 128 32 0 1 1-256 0ZM170.666667-61.866667a341.333333 32 0 1 1 682.666666 0 341.333333 32 0 1 1-682.666666 0ZM746.666667 328.533333a53.333333 32 0 1 1 106.666666 0 53.333333 32 0 1 1-106.666666 0ZM170.666667 328.533333a53.333333 32 0 1 1 106.666666 0 53.333333 32 0 1 1-106.666666 0ZM349.866667 298.666667c10.666667-170.666667 108.8-234.666667 145.066666-256 8.533333-4.266667 19.2-4.266667 29.866667 0 38.4 21.333333 134.4 83.2 145.066667 256 0 17.066667-12.8 32-29.866667 32H379.733333c-17.066667-2.133333-29.866667-14.933333-29.866666-32zM512 189.866667c0 32 96 23.466667 96-10.666667v-138.666667c0-53.333333-42.666667-96-96-96s-96 42.666667-96 96v138.666667c0 34.133333 96 42.666667 96 10.666667zM512 189.866667c0 32-96 23.466667-96-10.666667v-42.666667c0 34.133333 192 34.133333 192 0v42.666667c0 34.133333-96 42.666667-96 10.666667zM298.666667 456.533333m-21.333334 0a21.333333 21.333333 0 1 1 42.666667 0 21.333333 21.333333 0 1 1-42.666667 0ZM746.666667 456.533333m-21.333334 0a21.333333 21.333333 0 1 1 42.666667 0 21.333333 21.333333 0 1 1-42.666667 0Z"  horiz-adv-x="1024" />

    
    <glyph glyph-name="EMOJI-25" unicode="&#58970;" d="M512 437.333333m-426.666667 0a426.666667 426.666667 0 1 1 853.333334 0 426.666667 426.666667 0 1 1-853.333334 0ZM512 864c-234.666667 0-426.666667-192-426.666667-426.666667s192-426.666667 426.666667-426.666666 426.666667 192 426.666667 426.666666-192 426.666667-426.666667 426.666667z m0-789.333333c-215.466667 0-388.266667 174.933333-388.266667 388.266666C123.733333 678.4 296.533333 853.333333 512 853.333333s388.266667-174.933333 388.266667-388.266666c0-217.6-172.8-390.4-388.266667-390.4zM384 778.666667a128 32 0 1 1 256 0 128 32 0 1 1-256 0ZM170.666667-64a341.333333 32 0 1 1 682.666666 0 341.333333 32 0 1 1-682.666666 0ZM714.666667 330.666667a53.333333 32 0 1 1 106.666666 0 53.333333 32 0 1 1-106.666666 0ZM202.666667 330.666667a53.333333 32 0 1 1 106.666666 0 53.333333 32 0 1 1-106.666666 0ZM288 458.666667m-21.333333 0a21.333333 21.333333 0 1 1 42.666666 0 21.333333 21.333333 0 1 1-42.666666 0ZM736 458.666667m-21.333333 0a21.333333 21.333333 0 1 1 42.666666 0 21.333333 21.333333 0 1 1-42.666666 0ZM512 224m-160 0a160 160 0 1 1 320 0 160 160 0 1 1-320 0ZM512 213.333333c-57.6 0-106.666667-29.866667-134.4-74.666666C405.333333 93.866667 454.4 64 512 64s106.666667 29.866667 134.4 74.666667C618.666667 183.466667 569.6 213.333333 512 213.333333z"  horiz-adv-x="1024" />

    
    <glyph glyph-name="EMOJI-26" unicode="&#58971;" d="M512 439.466667m-426.666667 0a426.666667 426.666667 0 1 1 853.333334 0 426.666667 426.666667 0 1 1-853.333334 0ZM512 866.133333c-234.666667 0-426.666667-192-426.666667-426.666666s192-426.666667 426.666667-426.666667 426.666667 192 426.666667 426.666667-192 426.666667-426.666667 426.666666z m0-789.333333c-215.466667 0-388.266667 174.933333-388.266667 388.266667C123.733333 680.533333 296.533333 855.466667 512 855.466667s388.266667-174.933333 388.266667-388.266667c2.133333-217.6-172.8-390.4-388.266667-390.4zM384 780.8a128 32 0 1 1 256 0 128 32 0 1 1-256 0ZM170.666667-66.133333a341.333333 32 0 1 1 682.666666 0 341.333333 32 0 1 1-682.666666 0ZM298.666667 439.466667m-21.333334 0a21.333333 21.333333 0 1 1 42.666667 0 21.333333 21.333333 0 1 1-42.666667 0ZM714.666667 439.466667m-21.333334 0a21.333333 21.333333 0 1 1 42.666667 0 21.333333 21.333333 0 1 1-42.666667 0ZM714.666667 332.8a53.333333 32 0 1 1 106.666666 0 53.333333 32 0 1 1-106.666666 0ZM202.666667 332.8a53.333333 32 0 1 1 106.666666 0 53.333333 32 0 1 1-106.666666 0ZM352 183.466667c0-12.8-8.533333-21.333333-21.333333-21.333334s-21.333333 8.533333-21.333334 21.333334v64c0 12.8 8.533333 21.333333 21.333334 21.333333s21.333333-8.533333 21.333333-21.333333v-64zM448 183.466667c0-12.8-8.533333-21.333333-21.333333-21.333334s-21.333333 8.533333-21.333334 21.333334v64c0 12.8 8.533333 21.333333 21.333334 21.333333s21.333333-8.533333 21.333333-21.333333v-64zM544 183.466667c0-12.8-8.533333-21.333333-21.333333-21.333334s-21.333333 8.533333-21.333334 21.333334v64c0 12.8 8.533333 21.333333 21.333334 21.333333s21.333333-8.533333 21.333333-21.333333v-64zM640 183.466667c0-12.8-8.533333-21.333333-21.333333-21.333334s-21.333333 8.533333-21.333334 21.333334v64c0 12.8 8.533333 21.333333 21.333334 21.333333s21.333333-8.533333 21.333333-21.333333v-64zM699.733333 209.066667c-19.2-17.066667-23.466667-46.933333-6.4-68.266667l51.2-70.4 8.533334-12.8c10.666667-12.8 25.6-21.333333 40.533333-23.466667 17.066667-2.133333 32 4.266667 44.8 14.933334 12.8 10.666667 19.2 27.733333 19.2 42.666666 0 17.066667-6.4 32-19.2 44.8L768 206.933333c-19.2 17.066667-49.066667 19.2-68.266667 2.133334z m106.666667-119.466667c-6.4-4.266667-14.933333-4.266667-19.2 2.133333-4.266667 6.4-4.266667 14.933333 2.133333 19.2 6.4 4.266667 14.933333 4.266667 19.2-2.133333 4.266667-6.4 4.266667-14.933333-2.133333-19.2z"  horiz-adv-x="1024" />

    
    <glyph glyph-name="caiwu" unicode="&#58982;" d="M667.831-34.787H120.006a29.881 29.881 0 0 0-29.881 29.881v780.9a29.881 29.881 0 0 0 29.881 29.881h547.825a29.881 29.881 0 0 0 29.882-29.881v-780.9a29.881 29.881 0 0 0-29.882-29.881z m-517.943 59.762H637.95V746.112H149.888zM444.478 511.882H317.801a9.96 9.96 0 0 0 0 19.921h126.677a9.96 9.96 0 0 0 0-19.92z m0-56.495H317.801a9.96 9.96 0 0 0 0 19.92h126.677a9.96 9.96 0 0 0 0-19.92zM384.337 391.52a9.96 9.96 0 0 0-9.96 9.96V521.844a9.96 9.96 0 0 0 19.92 0V401.48a9.96 9.96 0 0 0-9.96-9.96zM379.775 519.173a9.96 9.96 0 0 0-7.052 2.909l-61.058 61.077a9.96 9.96 0 0 0 14.084 14.084l61.058-61.057a9.96 9.96 0 0 0-7.052-17.013zM388.939 518.257a9.96 9.96 0 0 0-7.052 17.012l61.057 61.058a9.96 9.96 0 0 0 14.084-14.084l-61.057-61.058a9.96 9.96 0 0 0-7.032-2.928zM213.635 516.862a19.92 19.92 0 0 0-19.583 23.726 193.392 193.392 0 0 0 379.235 1.833 19.92 19.92 0 1 0-39.025-7.968 153.57 153.57 0 0 1-301.085-1.455 19.92 19.92 0 0 0-19.542-16.136zM213.993 516.026a19.92 19.92 0 0 0-7.968 38.228l43.547 18.726a19.92 19.92 0 0 0 15.737-36.595l-43.547-18.726a19.92 19.92 0 0 0-7.769-1.633zM386.03 306.259a193.95 193.95 0 0 0-189.428 154.407 19.92 19.92 0 1 0 39.025 7.968 153.57 153.57 0 0 1 301.085 1.454 19.92 19.92 0 0 0 39.105-7.61 193.591 193.591 0 0 0-189.787-156.22zM512.448 428.473a19.92 19.92 0 0 0-7.968 38.229l43.547 18.725a19.92 19.92 0 1 0 15.737-36.594l-43.547-18.726a19.92 19.92 0 0 0-7.769-1.634zM373.002 198.287h-143.43a19.92 19.92 0 0 0 0 39.842h143.43a19.92 19.92 0 0 0 0-39.842z m167.335-109.565H229.571a19.92 19.92 0 0 0 0 39.842h310.766a19.92 19.92 0 0 0 0-39.842z m262.956 529.896h-39.841V666.15a98.608 98.608 0 0 0 197.217 0v-45.818h-39.842V666.15a58.767 58.767 0 0 1-117.534 0zM960.669 132.548H763.452V622.603h197.217zM803.293 172.39h117.534V582.76H803.293zM861.92-37.875l-98.389 170.423 34.503 19.921 63.887-110.66 63.886 110.66 34.503-19.92-98.39-170.424z m-62.61 596.73h123.509v-39.841h-123.51zM843.135 528.974h39.842v-284.869h-39.842z"  horiz-adv-x="1056" />

    
    <glyph glyph-name="jijinpingji" unicode="&#58983;" d="M371.375 144.938V387.516c0 21.093-14.063 35.156-35.156 35.156s-35.157-17.578-35.157-35.156v-242.578c0-21.094 14.063-35.157 35.157-35.157s35.156 14.063 35.156 35.157z m175.781-3.516V630.094c0 21.094-14.062 35.156-35.156 35.156s-35.156-17.578-35.156-35.156v-485.156c0-21.094 14.062-35.157 35.156-35.157s35.156 14.063 35.156 31.64zM898.72 32.437H160.437V770.72c0 17.578-14.062 35.156-35.156 35.156s-35.156-14.063-35.156-35.156V-2.72c0-17.578 14.063-35.156 35.156-35.156H898.72c21.093 0 35.156 14.063 35.156 35.156 0 17.578-14.063 35.157-35.156 35.156z m-175.782 112.5V492.985c0 21.094-14.062 35.157-35.156 35.157s-35.156-17.579-35.156-35.157v-348.046c0-21.094 14.063-35.157 35.156-35.157s35.157 14.063 35.157 35.157z"  horiz-adv-x="1024" />

    
    <glyph glyph-name="jinrong" unicode="&#58984;" d="M512-62.482c-60.265 0-118.739 11.808-173.798 35.097-53.169 22.489-100.915 54.679-141.912 95.676-40.997 40.996-73.187 88.743-95.675 141.912C77.327 265.263 65.519 323.735 65.519 384s11.808 118.738 35.096 173.798c22.49 53.17 54.678 100.916 95.675 141.912s88.743 73.187 141.912 95.675C393.262 818.674 451.735 830.482 512 830.482s118.739-11.808 173.798-35.097c53.17-22.488 100.915-54.678 141.913-95.675 40.997-40.996 73.187-88.743 95.675-141.912 23.288-55.06 35.096-113.533 35.096-173.798s-11.808-118.737-35.096-173.797c-22.49-53.17-54.68-100.916-95.675-141.912-40.997-40.997-88.743-73.188-141.912-95.676-55.06-23.289-113.535-35.097-173.799-35.097z m0 846.914c-220.8 0-400.433-179.633-400.433-400.432 0-220.8 179.634-400.433 400.432-400.433 220.8 0 400.434 179.633 400.434 400.433-0.002 220.799-179.635 400.432-400.434 400.432z m142.132-407.083h-285.16c-12.716 0-23.024 10.308-23.024 23.024s10.308 23.024 23.024 23.024h285.16c12.716 0 23.024-10.308 23.024-23.024s-10.308-23.024-23.024-23.024z m0-107.277h-285.16c-12.716 0-23.024 10.308-23.024 23.025s10.308 23.024 23.024 23.024h285.16c12.716 0 23.024-10.308 23.024-23.024s-10.308-23.025-23.024-23.025zM511.105 142.354c-12.717 0-23.024 10.308-23.024 23.025l-0.001 226.018c0 12.716 10.307 23.025 23.024 23.025s23.024-10.309 23.024-23.025l0.002-226.018c0-12.716-10.308-23.025-23.025-23.025z m0.469 226.017c-7.57 0-14.983 3.729-19.384 10.568L360.525 583.535c-6.882 10.694-3.793 24.94 6.9 31.822 10.692 6.883 24.94 3.793 31.823-6.9l131.665-204.599c6.882-10.693 3.792-24.94-6.902-31.821a22.914 22.914 0 0 0-12.437-3.666z m0.15 0a22.904 22.904 0 0 0-12.438 3.667c-10.694 6.881-13.784 21.128-6.902 31.821l131.665 204.597c6.882 10.694 21.129 13.785 31.822 6.901 10.694-6.881 13.784-21.128 6.902-31.822L531.108 378.94c-4.402-6.839-11.815-10.568-19.385-10.568z"  horiz-adv-x="1024" />

    
    <glyph glyph-name="celve" unicode="&#58985;" d="M230.631 224.212a84.245 84.245 0 1 0 0 168.49 84.245 84.245 0 0 0 0-168.49z m28.102 221.805V757.723a28.102 28.102 0 1 1-56.143 0v-311.706a140.448 140.448 0 0 1 0-275.18V27.62a28.042 28.042 0 1 1 56.143 0V170.837a140.448 140.448 0 0 1 0 275.18z m252.735 58.971a84.245 84.245 0 1 0 0 168.49 84.245 84.245 0 0 0 0-168.49z m28.102 221.866v30.87a28.102 28.102 0 1 1-56.204 0v-30.87a140.448 140.448 0 0 1 0-275.18V27.62a28.042 28.042 0 1 1 56.204 0V451.673a140.448 140.448 0 0 1 0 275.18z m252.735-614.989a84.245 84.245 0 1 0 0 168.49 84.245 84.245 0 0 0 0-168.49z m28.041 221.805V757.723a28.102 28.102 0 1 1-56.143 0V333.67a140.448 140.448 0 0 1 0-275.12v-30.93a28.042 28.042 0 1 1 56.143 0v30.93a140.448 140.448 0 0 1 0 275.12z"  horiz-adv-x="1024" />

    
    <glyph glyph-name="jiaoyichengbenfenxi" unicode="&#58986;" d="M616.337 685.759H220.246v-51.224h396.09v51.224z m0-114.994H220.246v-51.224h396.09v51.224z m340.86-214.53a25.496 25.496 0 0 1-4.436 14.407c-9.15 23.023-32.267 43.09-67.336 57.897-32.04 13.529-72.332 22.096-115.706 24.794V772.397c0 29.726-24.184 53.91-53.91 53.91H120.772c-29.727 0-53.91-24.184-53.91-53.91V21.29h51.223v0.645c2.201 1.991 21.542 19.42 43.893 37.172 33.502 26.61 48.978 34.316 54.552 36.495 2.463-1.755 7.168-5.704 14.851-14.329 8.719-9.786 18.065-21.935 27.104-33.684 25.751-33.472 39.936-51.911 60.495-51.911 18.308 0 30.852 14.134 64.427 55.003 9.698 11.803 24.224 29.486 34.287 39.71 5.096-6.405 11.29-15.003 16.001-21.542 25.875-35.916 52.63-73.053 86.552-73.171h0.132c7.74 0 15.47 1.964 23.311 5.91 12.065-12.577 29.134-23.696 50.737-32.82 39.275-16.587 90.948-25.722 145.5-25.722s106.224 9.135 145.5 25.722c46.283 19.546 71.77 48.248 71.77 80.82V347.725c0 1.427-0.066 2.843-0.164 4.255 0.097 1.412 0.163 2.828 0.163 4.255z m-91.695 25.115c23.56-9.948 36.151-21.162 39.53-29.37-3.379-8.208-15.97-19.424-39.531-29.373-32.635-13.781-78.404-21.684-125.573-21.684s-92.938 7.904-125.572 21.684c-23.56 9.948-36.152 21.165-39.532 29.373 3.38 8.208 15.971 19.422 39.53 29.37 32.634 13.778 78.402 21.681 125.574 21.681s92.94-7.904 125.574-21.681z m-338.406-10.708a25.494 25.494 0 0 1-4.436-14.407c0-1.428 0.067-2.843 0.164-4.255a61.882 61.882 0 0 1-0.164-4.255V49.59c0-0.37 0.022-0.736 0.027-1.104-0.99-0.635-1.75-1.041-2.278-1.29-2.046 0.983-7.44 4.305-16.953 14.97-9.415 10.553-18.963 23.81-28.198 36.627-21.143 29.347-33.903 47.06-53.474 48.69-22.527 1.883-41.196-19.54-77.956-64.285-7.41-9.02-17.29-21.047-24.875-29.413-6.245 7.332-13.998 17.41-19.868 25.04-32.527 42.278-54.145 68.002-80.055 68.738-13.079 0.351-33.505-4.787-85.71-45.814a885.605 885.605 0 0 1-15.235-12.263v682.91a2.69 2.69 0 0 0 2.687 2.688h595.035a2.69 2.69 0 0 0 2.687-2.687v-318.622c-37.081-1.646-72.18-7.556-102.16-17.168v31.94h-396.09v-51.224h351.595c-22.507-13.133-37.731-29.038-44.743-46.681zM905.974 49.59c0-8.233-12.515-21.824-40.474-33.632-32.635-13.782-78.403-21.686-125.572-21.686s-92.937 7.905-125.571 21.686c-27.96 11.808-40.474 25.4-40.474 33.632v31.437c6.308-3.565 13.159-6.92 20.545-10.04 39.275-16.588 90.948-25.723 145.5-25.723s106.224 9.135 145.5 25.723c7.388 3.12 14.238 6.474 20.546 10.04v-31.437z m0 102.218c0-8.233-12.515-21.824-40.474-33.632-32.636-13.783-78.404-21.687-125.572-21.687s-92.937 7.905-125.571 21.687c-27.958 11.808-40.474 25.4-40.474 33.632v31.436c6.308-3.564 13.159-6.92 20.545-10.04 39.275-16.587 90.948-25.722 145.5-25.722s106.224 9.135 145.5 25.722c7.388 3.12 14.238 6.474 20.546 10.04v-31.436z m0 102.216c0-8.233-12.515-21.824-40.474-33.632-32.635-13.782-78.404-21.686-125.572-21.686s-92.937 7.905-125.571 21.686c-27.96 11.808-40.474 25.4-40.474 33.632v31.432c6.309-3.564 13.159-6.92 20.546-10.039 39.274-16.585 90.947-25.719 145.499-25.719 54.552 0 106.224 9.134 145.5 25.719 7.387 3.12 14.238 6.474 20.546 10.04v-31.433z"  horiz-adv-x="1024" />

    
    <glyph glyph-name="qicheguzhi" unicode="&#58987;" d="M184.502 603.034l117.273-1.932-8.75-10.909c-0.568-0.682-1.023-1.25-1.477-1.932-11.364-16.022-13.182-36.363-4.66-52.84 8.523-16.364 25.228-26.25 44.773-26.25 2.16 0 4.319 0.113 6.478 0.34 169.545 9.546 303.636 13.864 434.431 13.864h26.25c-43.75-74.886-67.272-160.682-67.272-248.523-0.114-58.522 10.454-117.159 30.909-172.045H427.23c-29.205 0-52.955-23.75-52.955-52.955v-11.932H200.411V398.034c-0.454 28.75 5.455 51.364 17.728 67.046l21.136 26.022c10.455 12.841 14.205 29.432 10.455 45.455s-14.546 29.204-29.546 36.136l-38.977 17.841 3.295 12.5m331.818-342.5c13.978 0 27.273 5.341 37.273 15.114 10.114 9.772 16.137 23.409 16.364 37.613V347.92c0 43.182-33.864 80-78.864 85.569l-180.568 22.386c-2.386 0.34-4.66 0.455-7.045 0.455-32.046 0-58.182-26.705-58.182-59.546v-37.386c0-48.864 39.659-90.228 88.522-92.046l180.569-6.818h1.931m262.5 545.341c-95.113 0-190.568-3.864-312.5-12.045-17.272-1.932-32.954-10.796-43.636-24.432l-101.364-122.5c-2.045-2.5-5.227-3.978-8.409-3.978h-0.227l-133.409 2.16c-14.773 0-30.34-12.273-34.318-27.16l-11.818-44.431c-1.591-5.796 2.5-8.41 7.954-10.796l61.591-28.182c6.477-2.954 8.41-11.25 3.977-16.818l-21.363-26.363c-18.41-23.41-27.5-54.546-26.818-93.978v-373.75c0-15.113 12.5-27.727 27.727-27.727H388.82c15.228 0 27.614 12.5 27.614 27.727V49.74c0 6.022 4.886 10.909 10.91 10.909h382.5c8.067 0 13.408 8.522 9.772 15.795-30.227 61.705-46.023 129.432-45.91 198.296 0 110.34 39.66 211.477 105.455 289.772-35.795 0.569-71.136 0.91-106.363 0.91-134.432 0-269.66-4.432-438.182-13.978-1.023-0.113-1.932-0.227-2.841-0.227-8.977 0-9.773 7.159-5.795 12.727l137.5 171.932c6.022 7.5 12.727 11.59 22.386 12.727 118.523 8.068 204.204 11.818 288.636 11.818 89.546 0 177.955-4.204 302.955-11.704 0.227 0 0.568 0 0.795-0.114 9.432-1.25 16.023-5.34 21.932-12.613l48.864-57.387c2.045-2.84 5.34-4.432 8.75-4.432 1.022 0 2.045 0.114 2.954 0.455 12.5 3.523 21.25 7.727 32.5 10.455 7.841 1.931 11.023 11.25 6.023 17.5l-58.41 66.931c-10.34 13.637-26.135 22.387-43.295 24.319-124.545 7.954-221.477 12.045-318.75 12.045zM516.32 302.58h-0.454l-180.568 6.818c-26.364 1.022-47.955 23.522-47.955 50v37.386c0 9.318 7.16 17.5 16.137 17.5 0.568 0 1.25 0 1.818-0.114l180.568-22.5c22.954-2.84 42.045-20.568 42.045-43.75v-33.75c0-3.181-1.25-6.136-3.522-8.409-2.16-2.045-5.114-3.181-8.069-3.181z m362.841 261.818zM527.911 314.17z m0 0zM1164.389 597.807c40.113 0 78.977-7.841 115.568-23.296 35.34-15 67.045-36.363 94.318-63.636s48.636-58.977 63.636-94.318c15.455-36.591 23.296-75.455 23.296-115.568s-7.841-78.978-23.296-115.569c-15-35.34-36.363-67.045-63.636-94.318s-58.977-48.636-94.318-63.636c-36.591-15.455-75.455-23.296-115.568-23.296s-78.978 7.841-115.569 23.296c-35.34 15-67.045 36.364-94.318 63.636s-48.636 58.978-63.636 94.318c-15.455 36.591-23.296 75.455-23.296 115.569s7.841 78.977 23.296 115.568c15 35.34 36.364 67.045 63.636 94.318s58.978 48.636 94.318 63.636c36.591 15.455 75.455 23.296 115.569 23.296m0 42.045c-187.16 0-338.864-151.704-338.864-338.863s151.705-338.864 338.864-338.864 338.863 151.705 338.863 338.864-151.704 338.863-338.863 338.863zM1244.161 479.284h-58.75v-60.34h-103.977v-46.819h103.977v-63.523h-88.522v-184.545h192.5c27.84 0 41.704 11.363 41.704 34.09V308.603h-86.932v63.523h97.614v46.818h-97.614v60.341z m-92.954-308.523v91.25h123.863v-80.568c0-7.159-4.659-10.682-13.863-10.682h-110z m-51.137 306.932h-56.022l-25.796-67.5c-3.182-8.75-7.386-13.068-12.727-13.068h-18.636v-51.25h23.068v-223.068h56.023V389.51l34.09 88.182z"  horiz-adv-x="1663" />

    


  </font>
</defs>
</svg>
